# xmcd
#
# Track frame offsets: 
#        150
#        19407
#        37071
#        56620
#        68442
#        89933
#        104508
#        120700
#        132217
#        149626
#        160509
#        178711
#        194823
#        214599
#        229797
#        243557
#        261024
#        279674
#
# Disc length: 3910 seconds
#
# Revision: 0
# Processed by: cddbd v1.5.2PL0 Copyright (c) Steve Scherf et al.
# Submitted via: ExactAudioCopy v0.99pb5
#
DISCID=180f4412
DTITLE=Midnight Shift - Rhythm Rockin' Boogie
DYEAR=2011
DGENRE=Blues
TTITLE0=Real Good Sign
TTITLE1=Back To Her
TTITLE2=Low Cut Blouse
TTITLE3=Tear It Up
TTITLE4=Mr. Lincoln
TTITLE5=Rhythm Rockin' Boogie
TTITLE6=Before This Song Is Over
TTITLE7=Georgia Slop
TTITLE8=Let It Show
TTITLE9=The Girl From Nogales
TTITLE10=Mess Around
TTITLE11=My Destiny
TTITLE12=Do The 45
TTITLE13=She Never Could Forget
TTITLE14=Back To Memphis
TTITLE15=The L&N
TTITLE16=Crash Into Love
TTITLE17=Back Off
EXTD=
EXTT0=
EXTT1=
EXTT2=
EXTT3=
EXTT4=
EXTT5=
EXTT6=
EXTT7=
EXTT8=
EXTT9=
EXTT10=
EXTT11=
EXTT12=
EXTT13=
EXTT14=
EXTT15=
EXTT16=
EXTT17=
PLAYORDER=
